<svg width="240" height="240" viewBox="0 0 240 240" fill="none" xmlns="http://www.w3.org/2000/svg">
<g clip-path="url(#clip0_106_14)">
<g filter="url(#filter0_d_106_14)">
<path d="M165.862 36.6137C167.157 36.1378 168.45 35.6623 169.612 35.0137C173.757 32.7003 177.18 29.2102 179.449 24.9841C180.085 23.7993 180.552 22.4803 181.018 21.1604C181.794 18.9682 182.57 16.7736 184.125 15.1873L184.938 14.3591C189.33 9.88029 196.452 9.88029 200.845 14.3591L201.89 15.4241C203.421 16.9851 204.197 19.1362 204.972 21.2846C205.432 22.56 205.892 23.8345 206.509 24.9841C208.778 29.2102 212.201 32.7003 216.346 35.0137C217.473 35.643 218.723 36.1118 219.974 36.5809C222.081 37.3712 224.191 38.1624 225.722 39.7235L226.79 40.8128C231.07 45.1763 231.07 52.251 226.79 56.6146L226.098 57.3206C224.527 58.9224 222.348 59.7134 220.171 60.5036C218.85 60.9833 217.529 61.4628 216.346 62.1232C212.201 64.4366 208.778 67.9267 206.509 72.1528C205.861 73.3593 205.391 74.7059 204.92 76.0534C204.145 78.2727 203.37 80.4943 201.799 82.0961L200.781 83.134C196.424 87.5765 189.359 87.5765 185.002 83.134L184.211 82.3275C182.616 80.7013 181.841 78.437 181.067 76.1748C180.591 74.7836 180.115 73.3933 179.449 72.1528C177.18 67.9267 173.757 64.4366 169.612 62.1232C168.396 61.4441 167.032 60.959 165.668 60.4735C163.449 59.6842 161.228 58.894 159.633 57.2678L158.955 56.5764C154.696 52.2339 154.696 45.1934 158.955 40.8509L160.004 39.7816C161.56 38.1953 163.712 37.4041 165.862 36.6137Z" fill="white"/>
<path fill-rule="evenodd" clip-rule="evenodd" d="M18.8329 114.133C7.05569 126.141 7.0557 145.61 18.8329 157.618L21.0464 159.874C24.5464 163.443 29.2284 165.458 33.9008 167.469C36.324 168.512 38.7446 169.554 40.9964 170.811C51.7902 176.835 60.7042 185.924 66.6129 196.929C67.8456 199.225 68.8674 201.693 69.8903 204.164C71.8626 208.928 73.8389 213.702 77.339 217.27L79.8027 219.782C91.8565 232.072 111.399 232.072 123.453 219.782L126.58 216.594C130.006 213.101 131.969 208.449 133.928 203.806C134.917 201.461 135.906 199.119 137.081 196.929C142.99 185.924 151.904 176.835 162.697 170.811C164.845 169.612 167.142 168.605 169.442 167.596C173.995 165.599 178.558 163.597 181.984 160.104L184.253 157.791C196.124 145.687 196.124 126.063 184.253 113.959L180.876 110.516C177.575 107.15 173.21 105.176 168.855 103.207C166.76 102.259 164.668 101.313 162.697 100.213C151.904 94.1884 142.99 85.0997 137.081 74.0943C136.002 72.0854 135.074 69.9518 134.145 67.8157C132.213 63.376 130.277 58.9252 126.976 55.5595L123.743 52.2629C111.529 39.8098 91.7268 39.8098 79.5131 52.2629L76.9654 54.8606C73.5869 58.3053 71.6336 62.8806 69.6848 67.4454C68.7176 69.7108 67.7515 71.9736 66.6129 74.0943C60.7042 85.0997 51.7902 94.1884 40.9964 100.213C38.9165 101.374 36.6972 102.359 34.4753 103.345C29.9983 105.332 25.5109 107.324 22.1325 110.768L18.8329 114.133ZM126.532 115.976C126.532 109.011 123.762 102.707 119.291 98.1473C114.814 93.5829 108.631 90.7585 101.8 90.7585C94.9683 90.7585 88.785 93.5829 84.3084 98.1473C79.8367 102.707 77.0666 109.011 77.0666 115.976C77.0666 122.941 79.8367 129.246 84.3084 133.805C88.785 138.37 94.9683 141.194 101.8 141.194C108.631 141.194 114.814 138.37 119.291 133.805C121.591 131.467 123.415 128.688 124.658 125.628C125.901 122.568 126.538 119.288 126.532 115.976ZM72.12 166.412C72.12 171.455 83.2498 176.499 101.8 176.499C119.202 176.499 131.479 171.455 131.479 166.412C131.479 156.325 119.835 146.238 101.8 146.238C83.2498 146.238 72.12 156.325 72.12 166.412Z" fill="white"/>
</g>
</g>
<defs>
<filter id="filter0_d_106_14" x="-8.04874" y="-8.53655" width="256.097" height="266.171" filterUnits="userSpaceOnUse" color-interpolation-filters="sRGB">
<feFlood flood-opacity="0" result="BackgroundImageFix"/>
<feColorMatrix in="SourceAlpha" type="matrix" values="0 0 0 0 0 0 0 0 0 0 0 0 0 0 0 0 0 0 127 0" result="hardAlpha"/>
<feOffset dy="4.51218"/>
<feGaussianBlur stdDeviation="9.02437"/>
<feComposite in2="hardAlpha" operator="out"/>
<feColorMatrix type="matrix" values="0 0 0 0 0 0 0 0 0 0 0 0 0 0 0 0 0 0 0.25 0"/>
<feBlend mode="normal" in2="BackgroundImageFix" result="effect1_dropShadow_106_14"/>
<feBlend mode="normal" in="SourceGraphic" in2="effect1_dropShadow_106_14" result="shape"/>
</filter>
<clipPath id="clip0_106_14">
<rect width="240" height="240" fill="white"/>
</clipPath>
</defs>
</svg>
