<svg width="240" height="240" viewBox="0 0 240 240" fill="none" xmlns="http://www.w3.org/2000/svg">
<path d="M165.862 38.1213C167.157 37.6546 168.45 37.1882 169.612 36.552C173.757 34.2831 177.18 30.8601 179.449 26.7153C180.085 25.5533 180.552 24.2596 181.018 22.965C181.794 20.815 182.57 18.6626 184.125 17.1068L184.938 16.2945C189.33 11.9018 196.452 11.9018 200.845 16.2945L201.89 17.339C203.421 18.8701 204.197 20.9798 204.972 23.0869C205.432 24.3377 205.892 25.5879 206.509 26.7153C208.778 30.8601 212.201 34.2831 216.346 36.552C217.473 37.1692 218.723 37.629 219.974 38.0891C222.081 38.8642 224.191 39.6402 225.722 41.1713L226.79 42.2396C231.07 46.5193 231.07 53.458 226.79 57.7377L226.098 58.4302C224.527 60.0012 222.348 60.7769 220.171 61.5519C218.85 62.0224 217.529 62.4927 216.346 63.1404C212.201 65.4093 208.778 68.8323 206.509 72.9771C205.861 74.1604 205.391 75.4812 204.92 76.8028C204.145 78.9794 203.37 81.1583 201.799 82.7293L200.781 83.7472C196.424 88.1044 189.359 88.1043 185.002 83.7472L184.211 82.9563C182.616 81.3614 181.841 79.1405 181.067 76.9218C180.591 75.5574 180.115 74.1939 179.449 72.9771C177.18 68.8323 173.757 65.4093 169.612 63.1404C168.396 62.4744 167.032 61.9985 165.668 61.5224C163.449 60.7482 161.228 59.9733 159.633 58.3783L158.955 57.7002C154.696 53.4412 154.696 46.536 158.955 42.2771L160.004 41.2283C161.56 39.6725 163.712 38.8965 165.862 38.1213Z" fill="white"/>
<path fill-rule="evenodd" clip-rule="evenodd" d="M34.4753 103.57C36.6972 102.602 38.9165 101.636 40.9964 100.498C51.7902 94.5891 60.7042 85.6751 66.6129 74.8813C67.7515 72.8014 68.7175 70.5822 69.6847 68.3603C71.6336 63.8833 73.5869 59.3958 76.9654 56.0174L79.5131 53.4696C91.7268 41.2559 111.529 41.2559 123.743 53.4696L126.976 56.7028C130.277 60.0038 132.213 64.3691 134.145 68.7234C135.074 70.8185 136.002 72.9111 137.081 74.8814C142.99 85.6751 151.904 94.5891 162.697 100.498C164.668 101.576 166.76 102.505 168.855 103.434C173.21 105.365 177.575 107.302 180.876 110.603L184.253 113.98C196.124 125.851 196.124 145.098 184.253 156.969L181.984 159.238C178.558 162.664 173.995 164.627 169.442 166.585C167.142 167.575 164.844 168.563 162.697 169.738C151.904 175.647 142.99 184.561 137.081 195.355C135.906 197.502 134.917 199.8 133.928 202.1C131.969 206.653 130.006 211.216 126.58 214.642L123.453 217.769C111.399 229.822 91.8564 229.822 79.8027 217.769L77.339 215.305C73.8389 211.805 71.8625 207.123 69.8903 202.451C68.8674 200.027 67.8455 197.607 66.6129 195.355C60.7042 184.561 51.7902 175.647 40.9964 169.738C38.7446 168.506 36.324 167.484 33.9007 166.461C29.2284 164.489 24.5464 162.512 21.0463 159.012L18.8329 156.799C7.0557 145.022 7.05569 125.927 18.8329 114.15L22.1324 110.85C25.5109 107.472 29.9983 105.518 34.4753 103.57ZM97.3365 101.7C97.3365 96.703 101.388 92.6517 106.385 92.6517H128.853C134.293 92.6517 138.703 97.0612 138.703 102.501C138.703 107.94 134.293 112.35 128.853 112.35H116.05C110.61 112.35 106.201 116.759 106.201 122.199V160.61H106.195C105.933 171.262 97.2169 179.816 86.5025 179.816C75.6236 179.816 66.8044 170.997 66.8044 160.118C66.8044 149.239 75.6236 140.42 86.5025 140.42H89.9787C92.6275 140.42 95.1281 141.054 97.3365 142.18V101.7Z" fill="white"/>
</svg>
