<svg width="168" height="168" viewBox="0 0 168 168" fill="none" xmlns="http://www.w3.org/2000/svg">
<path d="M30.3344 68.9571C23.1607 72.997 12.8278 72.6956 7.04488 78.6446L5.4781 80.2564C-1.82603 87.7703 -1.82603 99.9527 5.47809 107.467L6.44401 108.46C12.351 114.537 23.0068 114.077 30.3344 118.203C37.797 122.405 43.9599 128.745 48.045 136.422C52.0563 143.96 51.6089 154.922 57.5159 160.999L58.7248 162.242C66.1873 169.919 78.2865 169.919 85.7491 162.242L87.326 160.62C93.1571 154.622 92.8051 143.864 96.7649 136.422C100.85 128.745 107.013 122.406 114.475 118.203C121.709 114.13 132.167 114.492 137.998 108.493L138.971 107.492C146.289 99.9641 146.289 87.7589 138.971 80.2309L137.391 78.606C131.686 72.7369 121.553 72.9427 114.475 68.9571C107.013 64.7547 100.85 58.4148 96.7649 50.7379C92.8905 43.4572 93.0906 33.033 87.3853 27.1639L85.7941 25.5269C78.3067 17.8245 66.1672 17.8245 58.6797 25.5269L57.4621 26.7796C51.6792 32.7286 51.9721 43.3581 48.045 50.7379C43.9599 58.4148 37.797 64.7547 30.3344 68.9571Z" fill="white"/>
<path d="M126.25 16.7509C124.112 17.9547 121.33 18.304 119.606 20.0768L118.881 20.8227C115.937 23.8518 115.937 28.763 118.881 31.7921L119.35 32.2744C121.131 34.1064 124.04 34.4173 126.25 35.6613C129.115 37.2751 131.482 39.7096 133.05 42.6575C134.26 44.9301 134.562 47.923 136.343 49.755L136.89 50.3175C139.902 53.4164 144.786 53.4164 147.798 50.3175L148.502 49.5935C150.248 47.7978 150.573 44.8852 151.759 42.6575C153.328 39.7096 155.694 37.2751 158.56 35.6613C160.725 34.4419 163.556 34.107 165.302 32.3113L165.781 31.8187C168.74 28.7749 168.74 23.8399 165.781 20.7961L165.042 20.0362C163.355 18.3009 160.652 17.9293 158.56 16.7509C155.694 15.1372 153.328 12.7026 151.759 9.75471C150.613 7.60197 150.252 4.82141 148.565 3.08604L147.843 2.34318C144.806 -0.781058 139.882 -0.78106 136.845 2.34318L136.283 2.92089C134.56 4.69365 134.221 7.5556 133.05 9.75472C131.482 12.7026 129.115 15.1372 126.25 16.7509Z" fill="white"/>
</svg>
