<svg width="128" height="128" viewBox="0 0 128 128" fill="none" xmlns="http://www.w3.org/2000/svg">
<path opacity="0.3" d="M128 64C128 99.3462 99.3462 128 64 128C28.6538 128 0 99.3462 0 64C0 28.6538 28.6538 0 64 0C99.3462 0 128 28.6538 128 64ZM19.9563 64C19.9563 88.3247 39.6753 108.044 64 108.044C88.3247 108.044 108.044 88.3247 108.044 64C108.044 39.6753 88.3247 19.9563 64 19.9563C39.6753 19.9563 19.9563 39.6753 19.9563 64Z" fill="white"/>
<path d="M118.022 64C123.533 64 128.079 59.5061 127.224 54.0622C126.44 49.0776 125.068 44.1915 123.128 39.5083C119.912 31.7434 115.198 24.6881 109.255 18.7452C103.312 12.8022 96.2566 8.08801 88.4917 4.87171C83.8085 2.93184 78.9224 1.55978 73.9378 0.776274C68.4939 -0.0794365 64 4.46737 64 9.97814C64 15.4889 68.5231 19.8439 73.8931 21.0817C76.2658 21.6287 78.5946 22.3727 80.8548 23.3089C86.1984 25.5223 91.0538 28.7666 95.1436 32.8564C99.2334 36.9462 102.478 41.8016 104.691 47.1452C105.627 49.4054 106.371 51.7342 106.918 54.1069C108.156 59.4769 112.511 64 118.022 64Z" fill="white"/>
</svg>
